{"title":"Bhaag Milkha Bhaag DVD RIP 2013 HINDI movie-GOPI SAHI","uid":9023102,"size":555685756,"categoryP":"video","categoryS":"hd___movies","magnet":"?xt=urn:btih:5c28bd83c5728bbdaa0a1da4be4aa96e37eb895a&amp;dn=Bhaag+Milkha+Bhaag+DVD+RIP+2013+HINDI+movie-GOPI+SAHI&amp;tr=udp%3A%2F%2Ftracker.openbittorrent.com%3A80&amp;tr=udp%3A%2F%2Fopen.demonii.com%3A1337&amp;tr=udp%3A%2F%2Ftracker.coppersurfer.tk%3A6969&amp;tr=udp%3A%2F%2Fexodus.desync.com%3A6969","seeders":1,"leechers":0,"uploader":"jatt13","files":6,"time":1381313715,"description":"[img]http://imageshack.us/a/img802/2678/k9wp.png[/img]\n\n[img]http://imageshack.us/a/img9/976/kla7.jpg[/img]\n\nimdb  [url]http://www.imdb.com/title/tt2356180/[/url]\n\nDirector:Rakeysh Omprakash Mehra\nWriters:Prasoon Joshi, Rakeysh Omprakash Mehra\nStars:Farhan Akhtar, Sonam Kapoor, Pavan Malhotra\n\n\nVideo\nID                             : 1\nFormat                         : AVC\nFormat/Info                    : Advanced Video Codec\nFormat profile                 : &lt;a class=&quot;__cf_email__&quot; href=&quot;/cdn-cgi/l/email-protection&quot; data-cfemail=&quot;d895b9b1b69894ebf6e8&quot;&gt;[email&amp;#160;protected]&lt;/a&gt;&lt;script cf-hash='f9e31' type=&quot;text/javascript&quot;&gt;\n/* &lt;![CDATA[ */!function(){try{var t=&quot;currentScript&quot;in document?document.currentScript:function(){for(var t=document.getElementsByTagName(&quot;script&quot;),e=t.length;e--;)if(t[e].getAttribute(&quot;cf-hash&quot;))return t[e]}();if(t&amp;&amp;t.previousSibling){var e,r,n,i,c=t.previousSibling,a=c.getAttribute(&quot;data-cfemail&quot;);if(a){for(e=&quot;&quot;,r=parseInt(a.substr(0,2),16),n=2;a.length-n;n+=2)i=parseInt(a.substr(n,2),16)^r,e+=String.fromCharCode(i);e=document.createTextNode(e),c.parentNode.replaceChild(e,c)}}}catch(u){}}();/* ]]&gt; */&lt;/script&gt;\nFormat settings, CABAC         : Yes\nFormat settings, ReFrames      : 1 frame\nCodec ID                       : avc1\nCodec ID/Info                  : Advanced Video Coding\nDuration                       : 2h 58mn\nBit rate                       : 300 Kbps\nWidth                          : 640 pixels\nHeight                         : 360 pixels\nDisplay aspect ratio           : 16:9\nFrame rate mode                : Constant\nFrame rate                     : 23.976 fps\nColor space                    : YUV\nChroma subsampling             : 4:2:0\nBit depth                      : 8 bits\nScan type                      : Progressive\nBits/(Pixel*Frame)             : 0.054\nStream size                    : 384 MiB (73%)\nLanguage                       : English\nEncoded date                   : UTC 2013-10-08 21:17:09\nTagged date                    : UTC 2013-10-08 21:17:09\nColor primaries                : BT.709\nTransfer characteristics       : BT.709\nMatrix coefficients            : BT.709\n\nAudio\nID                             : 2\nFormat                         : AAC\nFormat/Info                    : Advanced Audio Codec\nFormat profile                 : LC\nCodec ID                       : 40\nDuration                       : 2h 58mn\nBit rate mode                  : Constant\nBit rate                       : 109 Kbps\nNominal bit rate               : 48.0 Kbps\nChannel count                  : 2 channels\nChannel positions              : Front: L R\nSampling rate                  : 48.0 KHz\nCompression mode               : Lossy\nStream size                    : 140 MiB (26%)\nLanguage                       : English\nEncoded date                   : UTC 2013-10-08 21:17:09\nTagged date                    : UTC 2013-10-08 21:17:09\nmdhd_Duration                  : 10734933\n\n[img]http://imageshack.us/a/img15/3934/s3p6.jpg[/img]\n[img]http://imageshack.us/a/img15/8099/gu6w.png[/img]\n[img]http://imageshack.us/a/img571/2177/f1he.png[/img]\n[img]http://imageshack.us/a/img94/1675/gy5j.png[/img]\n[img]http://imageshack.us/a/img801/6227/a9he.png[/img]","torrent":{"xt":"urn:btih:5c28bd83c5728bbdaa0a1da4be4aa96e37eb895a","amp;dn":"Bhaag+Milkha+Bhaag+DVD+RIP+2013+HINDI+movie-GOPI+SAHI","amp;tr":["udp%3A%2F%2Ftracker.openbittorrent.com%3A80","udp%3A%2F%2Fopen.demonii.com%3A1337","udp%3A%2F%2Ftracker.coppersurfer.tk%3A6969","udp%3A%2F%2Fexodus.desync.com%3A6969"],"infoHash":"5c28bd83c5728bbdaa0a1da4be4aa96e37eb895a","infoHashBuffer":{"type":"Buffer","data":[92,40,189,131,197,114,139,189,170,10,29,164,190,74,169,110,55,235,137,90]},"announce":[],"urlList":[]}}